{"title":"Barney's Version 2010 1080p.BluRay.5.1.x264 . NVEE","uid":12275400,"size":3102828961,"categoryP":"video","categoryS":"hd___movies","magnet":"?xt=urn:btih:f56633800b76cd847e450d60ec566f354d58f795&amp;dn=Barney%27s+Version+2010+1080p.BluRay.5.1.x264+.+NVEE&amp;tr=udp%3A%2F%2Ftracker.openbittorrent.com%3A80&amp;tr=udp%3A%2F%2Fopen.demonii.com%3A1337&amp;tr=udp%3A%2F%2Ftracker.coppersurfer.tk%3A6969&amp;tr=udp%3A%2F%2Fexodus.desync.com%3A6969","seeders":4,"leechers":2,"uploader":".NVEE","files":2,"time":1440346421,"description":"\nQuick note : \n\nTrackers refresh never most current &amp; so if, \nYou require a torrent release I have posted in the past, not seeding,... \nPlease do not hesitate to inform me in any means you find fit to do so. \nTorrent requests also &quot;Always Welcome.&quot; \n\n \nFULL_INFOs \n\n99.99% &gt;&gt;&gt; SYNCED GUARANTEED \n\n&quot;Totally scrutinized / analyzed to be a verified torrent.&quot; \n___________________________________________ \n\nSource : Blu-ray ~ 1080p \n\n \n\nSpoken Language : English \n\nAudio : 6 ~ Channels Only \n\n \nSubs Info : \n\nx1 ~ Dutch .srt \n\nAll .srt UTF-8 .idx &amp; .ass subs can be turned On/Off \n_____________________________________ \n--------------------------------------------------------------------------------- \n \nGeneral Metadata \n\nComplete name : Barney's Version 2010.1080p.BluRay.5.1.x264 . NVEE.mp4 \nFormat : MPEG-4 \nFormat profile : Base Media \nCodec ID : isom \nFile size : 2.89 GiB \nDuration : 2h 14mn \nOverall bit rate : 3 080 Kbps \nEncoded date : UTC 2015-08-23 13:31:34 \nTagged date : UTC 2015-08-23 13:31:34 \n\n \nVideo \n\nID : 1 \nFormat : AVC \nFormat/Info : Advanced Video Codec \nFormat profile : High@L5 \nFormat settings, CABAC : Yes \nFormat settings, ReFrames : 6 frames \nCodec ID : avc1 \nCodec ID/Info : Advanced Video Coding \nDuration : 2h 14mn \nBit rate : 2 438 Kbps \nMaximum bit rate : 28.9 Mbps \nWidth : 1 920 pixels \nHeight : 824 pixels \nDisplay aspect ratio : 2.35:1 \nFrame rate mode : Constant \nFrame rate : 23.976 fps \nColor space : YUV \nChroma subsampling : 4:2:0 \nBit depth : 8 bits \nScan type : Progressive \nBits/(Pixel*Frame) : 0.064 \nStream size : 2.29 GiB (79%) \nWriting library : x264 core 148 r2579 73ae2d1 \n\nEncoded from Physical Blu-ray / Region B \n\n \nAudio \n\nID : 2 \nFormat : AC-3 \nFormat/Info : Audio Coding 3 \nMode extension : CM (complete main) \nFormat settings, Endianness : Big \nCodec ID : ac-3 \nDuration : 2h 14mn \nBit rate mode : Constant \nBit rate : 640 Kbps \nMaximum bit rate : 676 Kbps \nChannel(s) : 6 channels \nChannel positions : Front: L C R, Side: L R, LFE \nSampling rate : 48.0 KHz \nBit depth : 16 bits \nCompression mode : Lossy \nStream size : 615 MiB (21%) \nLanguage : English \nEncoded date : UTC 2015-08-23 13:44:03 \nTagged date : UTC 2015-08-23 13:45:52 \n\nEncoded from Physical Blu-ray 6 Channel audio &quot;Only&quot;. \n\n \n\n \n\n \n\n\n\n\nEnj0y !","torrent":{"xt":"urn:btih:f56633800b76cd847e450d60ec566f354d58f795","amp;dn":"Barney%27s+Version+2010+1080p.BluRay.5.1.x264+.+NVEE","amp;tr":["udp%3A%2F%2Ftracker.openbittorrent.com%3A80","udp%3A%2F%2Fopen.demonii.com%3A1337","udp%3A%2F%2Ftracker.coppersurfer.tk%3A6969","udp%3A%2F%2Fexodus.desync.com%3A6969"],"infoHash":"f56633800b76cd847e450d60ec566f354d58f795","infoHashBuffer":{"type":"Buffer","data":[245,102,51,128,11,118,205,132,126,69,13,96,236,86,111,53,77,88,247,149]},"announce":[],"urlList":[]}}